<svg width="167" height="53" viewBox="0 0 167 53" fill="none" xmlns="http://www.w3.org/2000/svg">
<g clip-path="url(#clip0_2_524)">
<path d="M87.7014 13.1006C87.7014 14.9796 86.1938 16.4932 84.3223 16.4932C82.4508 16.4932 80.9432 14.9796 80.9432 13.1006C80.9432 11.2216 82.3988 9.70803 84.3223 9.70803C86.2458 9.76022 87.7014 11.2738 87.7014 13.1006ZM73.769 19.938C73.769 20.2512 73.769 20.7731 73.769 20.7731C73.769 20.7731 72.1574 18.6853 68.7263 18.6853C63.0598 18.6853 58.6409 23.0174 58.6409 29.0197C58.6409 34.9698 63.0078 39.354 68.7263 39.354C72.2094 39.354 73.769 37.2141 73.769 37.2141V38.1014C73.769 38.5189 74.0809 38.8321 74.4968 38.8321H78.7077V19.2073C78.7077 19.2073 74.8607 19.2073 74.4968 19.2073C74.0809 19.2073 73.769 19.5726 73.769 19.938ZM73.769 32.5167C72.9892 33.6649 71.4296 34.6566 69.5581 34.6566C66.231 34.6566 63.6836 32.5689 63.6836 29.0197C63.6836 25.4705 66.231 23.3828 69.5581 23.3828C71.3776 23.3828 73.0412 24.4266 73.769 25.5227V32.5167ZM81.8269 19.2073H86.8176V38.8321H81.8269V19.2073ZM156.376 18.6853C152.945 18.6853 151.333 20.7731 151.333 20.7731V9.76022H146.342V38.8321C146.342 38.8321 150.189 38.8321 150.553 38.8321C150.969 38.8321 151.281 38.4667 151.281 38.1014V37.2141C151.281 37.2141 152.893 39.354 156.324 39.354C161.99 39.354 166.409 34.9698 166.409 29.0197C166.409 23.0696 161.99 18.6853 156.376 18.6853ZM155.544 34.6044C153.62 34.6044 152.113 33.6127 151.333 32.4645V25.4705C152.113 24.4266 153.776 23.3306 155.544 23.3306C158.871 23.3306 161.418 25.4183 161.418 28.9675C161.418 32.5167 158.871 34.6044 155.544 34.6044ZM143.743 27.1929V38.8843H138.752V27.767C138.752 24.531 137.712 23.2262 134.905 23.2262C133.398 23.2262 131.838 24.0091 130.85 25.1574V38.8321H125.86V19.2073H129.811C130.226 19.2073 130.538 19.5726 130.538 19.938V20.7731C131.994 19.2595 133.917 18.6853 135.841 18.6853C138.024 18.6853 139.844 19.3117 141.3 20.5643C143.067 22.0257 143.743 23.9047 143.743 27.1929ZM113.747 18.6853C110.316 18.6853 108.704 20.7731 108.704 20.7731V9.76022H103.713V38.8321C103.713 38.8321 107.56 38.8321 107.924 38.8321C108.34 38.8321 108.652 38.4667 108.652 38.1014V37.2141C108.652 37.2141 110.264 39.354 113.695 39.354C119.361 39.354 123.78 34.9698 123.78 29.0197C123.832 23.0696 119.413 18.6853 113.747 18.6853ZM112.915 34.6044C110.991 34.6044 109.484 33.6127 108.704 32.4645V25.4705C109.484 24.4266 111.147 23.3306 112.915 23.3306C116.242 23.3306 118.789 25.4183 118.789 28.9675C118.789 32.5167 116.242 34.6044 112.915 34.6044ZM99.3984 18.6853C100.906 18.6853 101.686 18.9463 101.686 18.9463V23.5915C101.686 23.5915 97.5269 22.1823 94.9276 25.1574V38.8843H89.9368V19.2073C89.9368 19.2073 93.7838 19.2073 94.1478 19.2073C94.5636 19.2073 94.8756 19.5726 94.8756 19.938V20.7731C95.8113 19.677 97.8388 18.6853 99.3984 18.6853ZM47.5678 37.0575C47.3078 36.4312 47.0479 35.7527 46.788 35.1785C46.3721 34.2391 45.9562 33.3518 45.5923 32.5167L45.5403 32.4645C41.9532 24.6354 38.1062 16.702 34.0513 8.87293L33.8953 8.55976C33.4794 7.77686 33.0635 6.94176 32.6476 6.10666C32.1278 5.16718 31.6079 4.1755 30.7761 3.23601C29.1125 1.14826 26.7212 0 24.1738 0C21.5745 0 19.2351 1.14826 17.5195 3.13162C16.7397 4.07111 16.1679 5.06279 15.648 6.00227C15.2321 6.83737 14.8162 7.67247 14.4003 8.45538L14.2444 8.76854C10.2414 16.5976 6.34242 24.531 2.75535 32.3601L2.70336 32.4645C2.33945 33.2996 1.92356 34.1869 1.50767 35.1264C1.24774 35.7005 0.987804 36.3268 0.727871 37.0053C0.0520459 38.9365 -0.1559 40.7633 0.104032 42.6422C0.675885 46.5568 3.27521 49.845 6.86229 51.3064C8.21394 51.8805 9.61758 52.1415 11.0732 52.1415C11.4891 52.1415 12.009 52.0893 12.4249 52.0371C14.1404 51.8283 15.908 51.2542 17.6235 50.2625C19.755 49.0621 21.7824 47.3397 24.0698 44.8344C26.3573 47.3397 28.4367 49.0621 30.5162 50.2625C32.2317 51.2542 33.9993 51.8283 35.7148 52.0371C36.1307 52.0893 36.6506 52.1415 37.0665 52.1415C38.5221 52.1415 39.9777 51.8805 41.2774 51.3064C44.9165 49.845 47.4638 46.5046 48.0357 42.6422C48.4515 40.8155 48.2436 38.9887 47.5678 37.0575ZM24.1218 39.7716C21.3146 36.2224 19.495 32.882 18.8712 30.0636C18.6113 28.8631 18.5593 27.8192 18.7152 26.8797C18.8192 26.0447 19.1311 25.3139 19.547 24.6876C20.5348 23.2784 22.1983 22.3911 24.1218 22.3911C26.0453 22.3911 27.7609 23.2262 28.6967 24.6876C29.1125 25.3139 29.4245 26.0447 29.5284 26.8797C29.6844 27.8192 29.6324 28.9153 29.3725 30.0636C28.7486 32.8298 26.9291 36.1702 24.1218 39.7716ZM44.8645 42.2247C44.5006 44.9388 42.681 47.2875 40.1337 48.3314C38.886 48.8533 37.5344 49.0099 36.1827 48.8533C34.883 48.6967 33.5834 48.2792 32.2317 47.4963C30.3602 46.4524 28.4887 44.8344 26.3053 42.4335C29.7364 38.2058 31.8158 34.3434 32.5956 30.8987C32.9595 29.2807 33.0115 27.8192 32.8556 26.4622C32.6476 25.1574 32.1798 23.9569 31.4519 22.913C29.8404 20.5643 27.1371 19.2073 24.1218 19.2073C21.1066 19.2073 18.4033 20.6165 16.7917 22.913C16.0639 23.9569 15.596 25.1574 15.3881 26.4622C15.1801 27.8192 15.2321 29.3329 15.648 30.8987C16.4278 34.3434 18.5593 38.258 21.9384 42.4857C19.8069 44.8866 17.8834 46.5046 16.0119 47.5485C14.6603 48.3314 13.3606 48.7489 12.0609 48.9055C10.6573 49.0621 9.30566 48.8533 8.10996 48.3835C5.56262 47.3397 3.74309 44.991 3.37919 42.2769C3.22323 40.972 3.3272 39.6672 3.84707 38.2058C4.00303 37.6838 4.26296 37.1619 4.52289 36.5356C4.8868 35.7005 5.30269 34.8132 5.71858 33.9259L5.77057 33.8215C9.35764 26.0447 13.2046 18.1112 17.2076 10.3865L17.3636 10.0734C17.7795 9.29048 18.1954 8.45538 18.6113 7.67247C19.0271 6.83737 19.495 6.05447 20.0669 5.37595C21.1586 4.1233 22.6142 3.44478 24.2258 3.44478C25.8374 3.44478 27.293 4.1233 28.3847 5.37595C28.9566 6.05447 29.4245 6.83737 29.8404 7.67247C30.2562 8.45538 30.6721 9.29048 31.088 10.0734L31.244 10.3865C35.195 18.1634 39.042 26.0968 42.6291 33.8737V33.9259C43.0449 34.761 43.4089 35.7005 43.8247 36.5356C44.0847 37.1619 44.3446 37.6838 44.5006 38.2058C44.9165 39.5628 45.0724 40.8677 44.8645 42.2247Z" fill="#FF5A5F"/>
</g>
<defs>
<clipPath id="clip0_2_524">
<rect width="166.409" height="52.1415" fill="white"/>
</clipPath>
</defs>
</svg>
