<svg width="151" height="50" viewBox="0 0 151 50" fill="none" xmlns="http://www.w3.org/2000/svg">
<g clip-path="url(#clip0_2_526)">
<path d="M145.796 30.1766L149.97 32.9596C148.616 34.9553 145.375 38.3792 139.772 38.3792C132.815 38.3792 127.633 32.9963 127.633 26.1486C127.633 18.8615 132.87 13.918 139.186 13.918C145.54 13.918 148.652 18.9713 149.659 21.6994L150.208 23.0909L133.84 29.8654C135.085 32.3188 137.026 33.5638 139.772 33.5638C142.519 33.5638 144.423 32.209 145.796 30.1766ZM132.961 25.7641L143.892 21.2234C143.288 19.7037 141.493 18.6235 139.351 18.6235C136.623 18.6235 132.833 21.0403 132.961 25.7641Z" fill="#FF302F"/>
<path d="M119.742 1.44934H125.015V37.2623H119.742V1.44934Z" fill="#20B15A"/>
<path d="M111.429 14.8701H116.519V36.6215C116.519 45.648 111.191 49.3648 104.893 49.3648C98.9607 49.3648 95.3904 45.3733 94.0538 42.1326L98.7227 40.1918C99.5649 42.1875 101.597 44.5494 104.893 44.5494C108.939 44.5494 111.429 42.041 111.429 37.3539V35.5962H111.246C110.038 37.0609 107.731 38.3792 104.801 38.3792C98.6861 38.3792 93.0835 33.0512 93.0835 26.1852C93.0835 19.2826 98.6861 13.8997 104.801 13.8997C107.713 13.8997 110.038 15.1996 111.246 16.6277H111.429V14.8701ZM111.796 26.1852C111.796 21.8642 108.921 18.715 105.259 18.715C101.561 18.715 98.4481 21.8642 98.4481 26.1852C98.4481 30.4513 101.561 33.5455 105.259 33.5455C108.921 33.5638 111.796 30.4513 111.796 26.1852Z" fill="#3686F7"/>
<path d="M64.1365 26.0936C64.1365 33.1427 58.6437 38.3243 51.9059 38.3243C45.168 38.3243 39.6752 33.1244 39.6752 26.0936C39.6752 19.0079 45.168 13.8447 51.9059 13.8447C58.6437 13.8447 64.1365 19.0079 64.1365 26.0936ZM58.7901 26.0936C58.7901 21.6994 55.6043 18.6784 51.9059 18.6784C48.2074 18.6784 45.0216 21.6994 45.0216 26.0936C45.0216 30.4513 48.2074 33.5089 51.9059 33.5089C55.6043 33.5089 58.7901 30.4513 58.7901 26.0936Z" fill="#FF302F"/>
<path d="M90.8497 26.1486C90.8497 33.1977 85.3569 38.3792 78.6191 38.3792C71.8813 38.3792 66.3885 33.1977 66.3885 26.1486C66.3885 19.0629 71.8813 13.918 78.6191 13.918C85.3569 13.918 90.8497 19.0446 90.8497 26.1486ZM85.4851 26.1486C85.4851 21.7543 82.2993 18.7333 78.6008 18.7333C74.9023 18.7333 71.7165 21.7543 71.7165 26.1486C71.7165 30.5062 74.9023 33.5638 78.6008 33.5638C82.3176 33.5638 85.4851 30.4879 85.4851 26.1486Z" fill="#FFBA40"/>
<path d="M19.5716 33.0146C11.9 33.0146 5.8946 26.8261 5.8946 19.1545C5.8946 11.4829 11.9 5.29432 19.5716 5.29432C23.7095 5.29432 26.7306 6.92385 28.9643 9.01111L32.6445 5.33094C29.5319 2.34652 25.3757 0.0761719 19.5716 0.0761719C9.06211 0.0761719 0.218719 8.64492 0.218719 19.1545C0.218719 29.664 9.06211 38.2327 19.5716 38.2327C25.2475 38.2327 29.5319 36.3652 32.8825 32.8864C36.3246 29.4443 37.3866 24.6106 37.3866 20.6924C37.3866 19.4657 37.2401 18.2024 37.0753 17.2686H19.5716V22.3586H32.0403C31.6741 25.5444 30.6671 27.7232 29.184 29.2063C27.3897 31.0189 24.5518 33.0146 19.5716 33.0146Z" fill="#3686F7"/>
</g>
<defs>
<clipPath id="clip0_2_526">
<rect width="150.483" height="49.3773" fill="white"/>
</clipPath>
</defs>
</svg>
