<svg width="36" height="36" viewBox="0 0 36 36" fill="none" xmlns="http://www.w3.org/2000/svg">
<g clip-path="url(#clip0_2_636)">
<path d="M18 35.9998C27.9411 35.9998 36 27.9409 36 17.9998C36 8.05863 27.9411 -0.000244141 18 -0.000244141C8.05884 -0.000244141 -3.05176e-05 8.05863 -3.05176e-05 17.9998C-3.05176e-05 27.9409 8.05884 35.9998 18 35.9998Z" fill="#007AB9"/>
<path d="M28.7548 19.4483V26.8693H24.4523V19.9456C24.4523 18.2071 23.8311 17.0199 22.2733 17.0199C21.0845 17.0199 20.3783 17.8192 20.0664 18.5931C19.9531 18.8697 19.9239 19.2538 19.9239 19.6417V26.8689H15.6211C15.6211 26.8689 15.6788 15.1425 15.6211 13.9287H19.9242V15.7625C19.9156 15.7769 19.9034 15.791 19.8957 15.8048H19.9242V15.7625C20.496 14.8826 21.5157 13.6248 23.8019 13.6248C26.6326 13.6248 28.7548 15.4743 28.7548 19.4483ZM11.12 7.69104C9.64813 7.69104 8.68521 8.65717 8.68521 9.92652C8.68521 11.1689 9.62022 12.163 11.0635 12.163H11.0914C12.5921 12.163 13.5252 11.1689 13.5252 9.92652C13.4966 8.65717 12.5921 7.69104 11.12 7.69104ZM8.94094 26.8693H13.2422V13.9287H8.94094V26.8693Z" fill="#F1F2F2"/>
</g>
<defs>
<clipPath id="clip0_2_636">
<rect width="36" height="36" fill="white"/>
</clipPath>
</defs>
</svg>
