<svg width="36" height="36" viewBox="0 0 36 36" fill="none" xmlns="http://www.w3.org/2000/svg">
<g clip-path="url(#clip0_2_631)">
<path d="M18.0002 35.9997C27.9412 35.9997 36 27.9409 36 17.9998C36 8.0588 27.9412 0 18.0002 0C8.05917 0 0.000366211 8.0588 0.000366211 17.9998C0.000366211 27.9409 8.05917 35.9997 18.0002 35.9997Z" fill="#55ACEE"/>
<path d="M29.0257 12.9359C28.2543 13.278 27.4246 13.5093 26.5544 13.6126C27.4428 13.0803 28.1247 12.238 28.4465 11.2328C27.6151 11.7259 26.6939 12.0837 25.7143 12.2766C24.9295 11.4407 23.8113 10.9183 22.5731 10.9183C20.1974 10.9183 18.2706 12.8451 18.2706 15.2208C18.2706 15.558 18.3088 15.8863 18.3826 16.2014C14.8069 16.022 11.6364 14.3092 9.51424 11.7054C9.14396 12.3407 8.93155 13.0803 8.93155 13.8687C8.93155 15.361 9.69167 16.6785 10.8455 17.4498C10.1406 17.4277 9.4767 17.2342 8.89689 16.9111C8.89657 16.9294 8.89657 16.9477 8.89657 16.9657C8.89657 19.0503 10.3803 20.7891 12.3481 21.1841C11.9875 21.2829 11.6066 21.3352 11.2148 21.3352C10.9369 21.3352 10.6677 21.3086 10.4053 21.2585C10.9527 22.9674 12.5413 24.2114 14.4244 24.2464C12.9517 25.4005 11.0967 26.0882 9.08043 26.0882C8.7339 26.0882 8.39057 26.0679 8.05463 26.0278C9.95767 27.249 12.2198 27.961 14.6493 27.961C22.5631 27.961 26.891 21.4051 26.891 15.7191C26.891 15.5327 26.8868 15.3469 26.8784 15.1627C27.7198 14.5563 28.4491 13.7987 29.0257 12.9359Z" fill="#F1F2F2"/>
</g>
<defs>
<clipPath id="clip0_2_631">
<rect width="36" height="36" fill="white"/>
</clipPath>
</defs>
</svg>
