<svg width="167" height="28" viewBox="0 0 167 28" fill="none" xmlns="http://www.w3.org/2000/svg">
<g clip-path="url(#clip0_2_520)">
<path d="M77.1434 11.1667C74.6766 11.1667 72.9268 13.1127 72.9268 16.0999V27.0574H69.1612V7.77032H72.8817V10.1255C73.3406 9.34491 73.9982 8.70226 74.7864 8.26416C75.5746 7.82607 76.4647 7.60847 77.3644 7.63392H78.7173V11.1667H77.1434ZM66.559 17.4139C66.559 11.6623 62.5003 7.36112 57.0074 7.36112C55.7096 7.37001 54.4263 7.63752 53.2314 8.14828C52.0366 8.65904 50.9536 9.40296 50.045 10.3372C49.1363 11.2715 48.4198 12.3777 47.9368 13.5922C47.4538 14.8067 47.2137 16.1055 47.2303 17.4139C47.2303 23.1609 51.6273 27.5075 57.3637 27.5075C58.9661 27.538 60.5522 27.1798 61.9885 26.4628C63.4248 25.7459 64.6691 24.6914 65.6165 23.3882L62.8836 21.3695C62.2566 22.2517 61.427 22.9678 60.4657 23.4563C59.5044 23.9448 58.4401 24.1914 57.3637 24.1748C55.8307 24.1675 54.3509 23.6067 53.1927 22.5942C52.0344 21.5816 51.2743 20.1841 51.0501 18.6551H66.5681L66.559 17.4139ZM51.1313 15.6452C51.8032 12.7035 54.1347 10.712 56.9623 10.712C59.7899 10.712 62.117 12.7035 62.7483 15.6452H51.1313ZM35.3021 7.36112C34.0437 7.36219 32.7979 7.61467 31.6368 8.10398C30.4757 8.59329 29.4223 9.30973 28.5375 10.2119V0.568359H24.7719V27.0574H28.4924V24.6113C30.2948 26.4496 32.7473 27.4913 35.3111 27.5075C36.6411 27.536 37.9633 27.2965 39.2002 26.8031C40.4371 26.3097 41.5639 25.5722 42.5145 24.634C43.465 23.6958 44.2202 22.5757 44.7358 21.3394C45.2514 20.1031 45.517 18.7755 45.517 17.4343C45.517 16.0932 45.2514 14.7655 44.7358 13.5292C44.2202 12.2929 43.465 11.1728 42.5145 10.2346C41.5639 9.29641 40.4371 8.55898 39.2002 8.06555C37.9633 7.57212 36.6411 7.33263 35.3111 7.36112H35.3021ZM35.0315 24.1157C33.719 24.122 32.4342 23.7351 31.3401 23.004C30.246 22.2729 29.392 21.2306 28.8864 20.0094C28.3808 18.7882 28.2464 17.4431 28.5003 16.1448C28.7542 14.8465 29.3849 13.6534 30.3124 12.7171C31.2398 11.7807 32.4223 11.1432 33.7097 10.8855C34.9972 10.6277 36.3315 10.7614 37.5435 11.2695C38.7554 11.7775 39.7904 12.6371 40.517 13.7392C41.2436 14.8412 41.6292 16.136 41.6247 17.4593C41.6259 18.3322 41.4561 19.1967 41.1251 20.0032C40.7941 20.8097 40.3083 21.5424 39.6957 22.1591C39.0831 22.7759 38.3558 23.2646 37.5554 23.5973C36.755 23.9299 35.8973 24.0999 35.0315 24.0975V24.1157ZM10.9045 23.9338C14.5393 23.9338 17.3624 21.124 17.3624 16.9137V0.568359H21.2633V27.0574H17.4075V24.5522C16.5066 25.4908 15.4263 26.2355 14.2318 26.7411C13.0373 27.2468 11.7535 27.5028 10.458 27.4939C4.8524 27.4939 0.536591 23.3746 0.536591 17.1274V0.568359H4.50966V16.9365C4.50966 21.1694 7.2155 23.9338 10.9045 23.9338Z" fill="#262626"/>
<path d="M88.084 0.568359H106.515V5.11505H93.0627V11.5714H106.141V15.9635H93.0627V22.5289H106.515V27.0756H88.084V0.568359ZM157.417 27.553C163.067 27.553 166.251 24.825 166.251 21.0785C166.251 18.4096 164.366 16.4181 160.42 15.5543L156.249 14.6949C153.827 14.2403 153.065 13.7856 153.065 12.8763C153.065 11.6987 154.233 10.9757 156.384 10.9757C158.715 10.9757 160.443 11.6077 160.894 13.7811H165.782C165.516 9.68903 162.598 6.98829 156.681 6.98829C151.567 6.98829 147.978 9.11615 147.978 13.24C147.978 16.0908 149.953 17.9458 154.215 18.8506L158.878 19.9373C160.718 20.301 161.209 20.8012 161.209 21.5695C161.209 22.7926 159.82 23.561 157.574 23.561C154.751 23.561 153.137 22.929 152.51 20.7557H147.594C148.311 24.8386 151.315 27.553 157.417 27.553ZM146.174 27.0574H140.884C137.565 27.0574 135.725 24.975 135.725 22.347V11.9351H132.004V7.49752H135.743V1.92782H140.658V7.49752H146.174V11.9351H140.658V21.0785C140.658 22.1197 141.375 22.6198 142.498 22.6198H146.174V27.0574ZM124.978 7.50662V9.27073C123.247 7.79572 121.052 6.98986 118.786 6.99739C117.429 6.96861 116.081 7.21319 114.819 7.71677C113.557 8.22035 112.408 8.97281 111.438 9.93004C110.468 10.8873 109.698 12.03 109.172 13.2913C108.646 14.5526 108.375 15.907 108.375 17.2752C108.375 18.6434 108.646 19.9978 109.172 21.2591C109.698 22.5204 110.468 23.6631 111.438 24.6203C112.408 25.5776 113.557 26.33 114.819 26.8336C116.081 27.3372 117.429 27.5818 118.786 27.553C121.053 27.5629 123.249 26.7568 124.978 25.2796V27.0483H129.88V7.49752L124.978 7.50662ZM119.192 23.2609C118.016 23.2744 116.863 22.9352 115.879 22.2863C114.895 21.6374 114.124 20.7081 113.665 19.6166C113.206 18.5251 113.079 17.3207 113.3 16.1563C113.522 14.9919 114.082 13.9202 114.909 13.0774C115.736 12.2346 116.793 11.6587 117.945 11.4229C119.098 11.1871 120.294 11.3021 121.381 11.7533C122.469 12.2044 123.398 12.9714 124.053 13.9566C124.707 14.9419 125.056 16.101 125.055 17.2866C125.062 18.0681 124.915 18.8433 124.623 19.5674C124.331 20.2914 123.9 20.9498 123.354 21.5046C122.808 22.0594 122.158 22.4995 121.442 22.7994C120.726 23.0993 119.958 23.2531 119.183 23.2518L119.192 23.2609Z" fill="#5FB709"/>
</g>
<defs>
<clipPath id="clip0_2_520">
<rect width="166.409" height="27.7348" fill="white"/>
</clipPath>
</defs>
</svg>
